<mxfile host="app.diagrams.net" agent="Mozilla/5.0 (Windows NT 10.0; Win64; x64) AppleWebKit/537.36 (KHTML, like Gecko) Chrome/130.0.0.0 Safari/537.36" version="24.8.4">
  <diagram name="Page-1" id="T-FfSN23QufaH5tiH_a4">
    <mxGraphModel dx="1018" dy="688" grid="1" gridSize="10" guides="1" tooltips="1" connect="1" arrows="1" fold="1" page="1" pageScale="1" pageWidth="827" pageHeight="1169" math="0" shadow="0">
      <root>
        <mxCell id="0" />
        <mxCell id="1" parent="0" />
        <mxCell id="AahPi93fjwL1y0TYgw03-42" value="Visitor" style="swimlane;html=1;startSize=20;" parent="1" vertex="1">
          <mxGeometry x="140" y="60" width="450" height="1120" as="geometry" />
        </mxCell>
        <mxCell id="AahPi93fjwL1y0TYgw03-43" style="edgeStyle=orthogonalEdgeStyle;rounded=0;orthogonalLoop=1;jettySize=auto;html=1;exitX=0.5;exitY=1;exitDx=0;exitDy=0;entryX=0.5;entryY=0;entryDx=0;entryDy=0;" parent="AahPi93fjwL1y0TYgw03-42" source="AahPi93fjwL1y0TYgw03-44" target="AahPi93fjwL1y0TYgw03-46" edge="1">
          <mxGeometry relative="1" as="geometry" />
        </mxCell>
        <mxCell id="AahPi93fjwL1y0TYgw03-44" value="Enter the website." style="rounded=1;whiteSpace=wrap;html=1;" parent="AahPi93fjwL1y0TYgw03-42" vertex="1">
          <mxGeometry x="105" y="110" width="160" height="50" as="geometry" />
        </mxCell>
        <mxCell id="sMcAr7O4yi16mGqeSlbD-2" style="edgeStyle=none;curved=1;rounded=0;orthogonalLoop=1;jettySize=auto;html=1;exitX=0.5;exitY=1;exitDx=0;exitDy=0;entryX=0.5;entryY=0;entryDx=0;entryDy=0;fontSize=12;startSize=8;endSize=8;" edge="1" parent="AahPi93fjwL1y0TYgw03-42" source="AahPi93fjwL1y0TYgw03-46" target="sMcAr7O4yi16mGqeSlbD-1">
          <mxGeometry relative="1" as="geometry" />
        </mxCell>
        <mxCell id="AahPi93fjwL1y0TYgw03-46" value="Click &quot;Login&quot;." style="rounded=1;whiteSpace=wrap;html=1;" parent="AahPi93fjwL1y0TYgw03-42" vertex="1">
          <mxGeometry x="105" y="200" width="160" height="50" as="geometry" />
        </mxCell>
        <mxCell id="AahPi93fjwL1y0TYgw03-55" style="edgeStyle=orthogonalEdgeStyle;rounded=0;orthogonalLoop=1;jettySize=auto;html=1;" parent="AahPi93fjwL1y0TYgw03-42" source="AahPi93fjwL1y0TYgw03-56" target="AahPi93fjwL1y0TYgw03-44" edge="1">
          <mxGeometry relative="1" as="geometry" />
        </mxCell>
        <mxCell id="AahPi93fjwL1y0TYgw03-47" value="Fill in their username and password for the system to check." style="rounded=1;whiteSpace=wrap;html=1;" parent="AahPi93fjwL1y0TYgw03-42" vertex="1">
          <mxGeometry x="220" y="390" width="150" height="50" as="geometry" />
        </mxCell>
        <mxCell id="AahPi93fjwL1y0TYgw03-56" value="" style="ellipse;html=1;shape=endState;fillColor=#000000;strokeColor=#ff0000;" parent="AahPi93fjwL1y0TYgw03-42" vertex="1">
          <mxGeometry x="170" y="30" width="30" height="30" as="geometry" />
        </mxCell>
        <mxCell id="sMcAr7O4yi16mGqeSlbD-3" style="edgeStyle=orthogonalEdgeStyle;rounded=0;orthogonalLoop=1;jettySize=auto;html=1;entryX=0.5;entryY=0;entryDx=0;entryDy=0;fontSize=12;startSize=8;endSize=8;" edge="1" parent="AahPi93fjwL1y0TYgw03-42" source="sMcAr7O4yi16mGqeSlbD-1" target="AahPi93fjwL1y0TYgw03-47">
          <mxGeometry relative="1" as="geometry" />
        </mxCell>
        <mxCell id="sMcAr7O4yi16mGqeSlbD-5" style="edgeStyle=orthogonalEdgeStyle;rounded=0;orthogonalLoop=1;jettySize=auto;html=1;exitX=0;exitY=0.5;exitDx=0;exitDy=0;entryX=0.5;entryY=0;entryDx=0;entryDy=0;fontSize=12;startSize=8;endSize=8;" edge="1" parent="AahPi93fjwL1y0TYgw03-42" source="sMcAr7O4yi16mGqeSlbD-1" target="sMcAr7O4yi16mGqeSlbD-4">
          <mxGeometry relative="1" as="geometry" />
        </mxCell>
        <mxCell id="sMcAr7O4yi16mGqeSlbD-1" value="" style="rhombus;whiteSpace=wrap;html=1;" vertex="1" parent="AahPi93fjwL1y0TYgw03-42">
          <mxGeometry x="170" y="310" width="30" height="40" as="geometry" />
        </mxCell>
        <mxCell id="sMcAr7O4yi16mGqeSlbD-4" value="Click &quot;Login with Wechat&quot;" style="rounded=1;whiteSpace=wrap;html=1;" vertex="1" parent="AahPi93fjwL1y0TYgw03-42">
          <mxGeometry x="20" y="390" width="150" height="50" as="geometry" />
        </mxCell>
        <mxCell id="sMcAr7O4yi16mGqeSlbD-26" value="Use Wechat to scan the code" style="rounded=1;whiteSpace=wrap;html=1;" vertex="1" parent="AahPi93fjwL1y0TYgw03-42">
          <mxGeometry x="20" y="660" width="150" height="50" as="geometry" />
        </mxCell>
        <mxCell id="AahPi93fjwL1y0TYgw03-57" value="System" style="swimlane;html=1;startSize=20;" parent="1" vertex="1">
          <mxGeometry x="590" y="60" width="740" height="1120" as="geometry" />
        </mxCell>
        <mxCell id="AahPi93fjwL1y0TYgw03-58" style="edgeStyle=orthogonalEdgeStyle;rounded=0;orthogonalLoop=1;jettySize=auto;html=1;entryX=0.5;entryY=0;entryDx=0;entryDy=0;" parent="AahPi93fjwL1y0TYgw03-57" source="AahPi93fjwL1y0TYgw03-59" target="AahPi93fjwL1y0TYgw03-65" edge="1">
          <mxGeometry relative="1" as="geometry" />
        </mxCell>
        <mxCell id="AahPi93fjwL1y0TYgw03-59" value="Verify whether the username and password matches." style="rounded=1;whiteSpace=wrap;html=1;" parent="AahPi93fjwL1y0TYgw03-57" vertex="1">
          <mxGeometry x="160" y="610" width="190" height="50" as="geometry" />
        </mxCell>
        <mxCell id="AahPi93fjwL1y0TYgw03-64" value="" style="ellipse;html=1;shape=endState;fillColor=#000000;strokeColor=#ff0000;" parent="AahPi93fjwL1y0TYgw03-57" vertex="1">
          <mxGeometry x="240" y="870" width="30" height="30" as="geometry" />
        </mxCell>
        <mxCell id="AahPi93fjwL1y0TYgw03-69" style="edgeStyle=orthogonalEdgeStyle;rounded=0;orthogonalLoop=1;jettySize=auto;html=1;entryX=0.5;entryY=0;entryDx=0;entryDy=0;" parent="AahPi93fjwL1y0TYgw03-57" source="AahPi93fjwL1y0TYgw03-65" target="AahPi93fjwL1y0TYgw03-66" edge="1">
          <mxGeometry relative="1" as="geometry" />
        </mxCell>
        <mxCell id="AahPi93fjwL1y0TYgw03-72" value="Yes" style="edgeLabel;html=1;align=center;verticalAlign=middle;resizable=0;points=[];" parent="AahPi93fjwL1y0TYgw03-69" vertex="1" connectable="0">
          <mxGeometry x="-0.1505" relative="1" as="geometry">
            <mxPoint as="offset" />
          </mxGeometry>
        </mxCell>
        <mxCell id="AahPi93fjwL1y0TYgw03-71" style="edgeStyle=orthogonalEdgeStyle;rounded=0;orthogonalLoop=1;jettySize=auto;html=1;exitX=1;exitY=0.5;exitDx=0;exitDy=0;" parent="AahPi93fjwL1y0TYgw03-57" source="AahPi93fjwL1y0TYgw03-65" target="AahPi93fjwL1y0TYgw03-70" edge="1">
          <mxGeometry relative="1" as="geometry" />
        </mxCell>
        <mxCell id="AahPi93fjwL1y0TYgw03-73" value="No" style="edgeLabel;html=1;align=center;verticalAlign=middle;resizable=0;points=[];" parent="AahPi93fjwL1y0TYgw03-71" vertex="1" connectable="0">
          <mxGeometry x="-0.2952" y="1" relative="1" as="geometry">
            <mxPoint as="offset" />
          </mxGeometry>
        </mxCell>
        <mxCell id="AahPi93fjwL1y0TYgw03-65" value="" style="rhombus;whiteSpace=wrap;html=1;" parent="AahPi93fjwL1y0TYgw03-57" vertex="1">
          <mxGeometry x="240" y="700" width="30" height="40" as="geometry" />
        </mxCell>
        <mxCell id="AahPi93fjwL1y0TYgw03-78" style="edgeStyle=orthogonalEdgeStyle;rounded=0;orthogonalLoop=1;jettySize=auto;html=1;exitX=0.5;exitY=1;exitDx=0;exitDy=0;entryX=0;entryY=0.5;entryDx=0;entryDy=0;" parent="AahPi93fjwL1y0TYgw03-57" source="AahPi93fjwL1y0TYgw03-66" target="AahPi93fjwL1y0TYgw03-64" edge="1">
          <mxGeometry relative="1" as="geometry" />
        </mxCell>
        <mxCell id="AahPi93fjwL1y0TYgw03-66" value="Allow the visitor to log in." style="rounded=1;whiteSpace=wrap;html=1;" parent="AahPi93fjwL1y0TYgw03-57" vertex="1">
          <mxGeometry x="50" y="770" width="150" height="50" as="geometry" />
        </mxCell>
        <mxCell id="AahPi93fjwL1y0TYgw03-76" style="edgeStyle=orthogonalEdgeStyle;rounded=0;orthogonalLoop=1;jettySize=auto;html=1;exitX=0.5;exitY=1;exitDx=0;exitDy=0;entryX=1;entryY=0.5;entryDx=0;entryDy=0;" parent="AahPi93fjwL1y0TYgw03-57" source="AahPi93fjwL1y0TYgw03-70" target="AahPi93fjwL1y0TYgw03-64" edge="1">
          <mxGeometry relative="1" as="geometry" />
        </mxCell>
        <mxCell id="AahPi93fjwL1y0TYgw03-70" value="Show a notification: &quot;Fail to log in: incorrect username or password&quot;, and exit." style="rounded=1;whiteSpace=wrap;html=1;" parent="AahPi93fjwL1y0TYgw03-57" vertex="1">
          <mxGeometry x="300" y="770" width="160" height="50" as="geometry" />
        </mxCell>
        <mxCell id="sMcAr7O4yi16mGqeSlbD-25" value="Generate a Wechat QR code for users to scan" style="rounded=1;whiteSpace=wrap;html=1;" vertex="1" parent="AahPi93fjwL1y0TYgw03-57">
          <mxGeometry x="470" y="610" width="190" height="50" as="geometry" />
        </mxCell>
        <mxCell id="AahPi93fjwL1y0TYgw03-68" style="edgeStyle=orthogonalEdgeStyle;rounded=0;orthogonalLoop=1;jettySize=auto;html=1;" parent="1" source="AahPi93fjwL1y0TYgw03-47" target="AahPi93fjwL1y0TYgw03-59" edge="1">
          <mxGeometry relative="1" as="geometry" />
        </mxCell>
        <mxCell id="sMcAr7O4yi16mGqeSlbD-8" style="edgeStyle=elbowEdgeStyle;rounded=0;orthogonalLoop=1;jettySize=auto;html=1;exitX=0.5;exitY=1;exitDx=0;exitDy=0;fontSize=12;startSize=8;endSize=8;entryX=0.5;entryY=0;entryDx=0;entryDy=0;elbow=vertical;" edge="1" parent="1" source="sMcAr7O4yi16mGqeSlbD-4" target="sMcAr7O4yi16mGqeSlbD-25">
          <mxGeometry relative="1" as="geometry">
            <mxPoint x="1080" y="601.0326086956522" as="targetPoint" />
          </mxGeometry>
        </mxCell>
        <mxCell id="sMcAr7O4yi16mGqeSlbD-28" style="edgeStyle=orthogonalEdgeStyle;rounded=0;orthogonalLoop=1;jettySize=auto;html=1;exitX=0.5;exitY=1;exitDx=0;exitDy=0;entryX=1;entryY=0.5;entryDx=0;entryDy=0;fontSize=12;startSize=8;endSize=8;" edge="1" parent="1" source="sMcAr7O4yi16mGqeSlbD-25" target="sMcAr7O4yi16mGqeSlbD-26">
          <mxGeometry relative="1" as="geometry" />
        </mxCell>
        <mxCell id="sMcAr7O4yi16mGqeSlbD-29" style="edgeStyle=orthogonalEdgeStyle;rounded=0;orthogonalLoop=1;jettySize=auto;html=1;exitX=0.5;exitY=1;exitDx=0;exitDy=0;entryX=0;entryY=0.5;entryDx=0;entryDy=0;fontSize=12;startSize=8;endSize=8;" edge="1" parent="1" source="sMcAr7O4yi16mGqeSlbD-26" target="AahPi93fjwL1y0TYgw03-66">
          <mxGeometry relative="1" as="geometry" />
        </mxCell>
      </root>
    </mxGraphModel>
  </diagram>
</mxfile>
